<svg xmlns="http://www.w3.org/2000/svg" viewBox="0 0 64 64" fill="none">
  <defs>
    <linearGradient id="cloudGrad" x1="0%" y1="0%" x2="100%" y2="100%">
      <stop offset="0%" style="stop-color:#38BDF8;stop-opacity:1" />
      <stop offset="100%" style="stop-color:#0EA5E9;stop-opacity:1" />
    </linearGradient>
  </defs>
  <path d="M48 24c0-8.8-7.2-16-16-16-6.8 0-12.6 4.3-14.8 10.3C16.4 18.2 15.8 18 15.2 18 8.5 18 3 23.5 3 30.2c0 6.7 5.5 12.2 12.2 12.2h32.6c5.5 0 10-4.5 10-10 0-5.2-4-9.5-9.1-9.9-.3-.5-.5-1.1-.7-1.7V24z" fill="url(#cloudGrad)"/>
  <ellipse cx="38" cy="30" rx="8" ry="6" fill="rgba(255,255,255,0.3)"/>
</svg>
